<?xml version="1.0" encoding="UTF-8"?><svg id="b" xmlns="http://www.w3.org/2000/svg" viewBox="0 0 633.56 147.5"><defs><style>.d{fill:#fff;stroke-width:0px;}</style></defs><g id="c"><path class="d" d="M147.4.1v29.4H29.5v29.5h117.9v29.5H29.5v58.9H0V29.5c0-5.4,1.3-10.3,4-14.8,2.6-4.5,6.2-8,10.7-10.7C19.2,1.4,24.1,0,29.5,0h117.9v.1Z"/><path class="d" d="M309.45,147.4h-117.9c-5.4,0-10.3-1.3-14.8-4-4.5-2.6-8-6.2-10.7-10.7-2.6-4.5-4-9.4-4-14.8V.1h29.5v117.8h117.9v29.5Z"/><path class="d" d="M442.11,147.4h-88.4c-5.4,0-10.3-1.3-14.8-4-4.5-2.6-8-6.2-10.7-10.7-2.6-4.5-4-9.4-4-14.8V.1h29.5v117.8h88.4V.1h29.5v117.8c0,5.4-1.3,10.3-4,14.8-2.6,4.5-6.2,8.1-10.7,10.7-4.5,2.7-9.4,4-14.8,4Z"/><path class="d" d="M633.56.1v20.6c0,4.2-1.5,7.7-4.4,10.7l-42.4,42.4,42.4,42.4c2.9,2.9,4.4,6.5,4.4,10.7v20.6h-29.4v-14.7l-44.2-44.2-44.2,44.2v14.7h-29.5v-20.7c0-4.2,1.5-7.7,4.4-10.7l42.4-42.4-42.4-42.4c-2.9-2.9-4.4-6.5-4.4-10.7V0h29.5v14.7l44.2,44.2,44.2-44.2V0h29.4v.1Z"/></g></svg>