<?xml version="1.0" encoding="UTF-8"?><svg id="b" xmlns="http://www.w3.org/2000/svg" viewBox="0 0 633.55 147.35"><defs><style>.d{stroke-width:0px;}</style></defs><g id="c"><path class="d" d="M147.33,0v29.48H29.46v29.46h117.88v29.48H29.46v58.94H0V29.48c0-5.4,1.32-10.34,3.96-14.83,2.64-4.48,6.19-8.05,10.67-10.69C19.11,1.32,24.05,0,29.46,0h117.88Z"/><path class="d" d="M309.4,147.35h-117.88c-5.41,0-10.35-1.32-14.83-3.96-4.47-2.64-8.03-6.2-10.67-10.69-2.64-4.48-3.96-9.43-3.96-14.83V0h29.46v117.88h117.88v29.48Z"/><path class="d" d="M442.02,147.35h-88.42c-5.41,0-10.35-1.32-14.83-3.96-4.47-2.64-8.03-6.2-10.67-10.69-2.64-4.48-3.96-9.43-3.96-14.83V0h29.46v117.88h88.42V0h29.46v117.88c0,5.41-1.32,10.35-3.96,14.83-2.64,4.49-6.2,8.05-10.69,10.69-4.47,2.64-9.41,3.96-14.81,3.96Z"/><path class="d" d="M633.55,0v20.63c0,4.18-1.47,7.74-4.42,10.69l-42.35,42.38,42.35,42.35c2.94,2.95,4.42,6.51,4.42,10.69v20.63h-29.46v-14.73l-44.21-44.21-44.21,44.21v14.73h-29.46v-20.63c0-4.18,1.47-7.74,4.42-10.69l42.35-42.35-42.35-42.38c-2.95-2.94-4.42-6.51-4.42-10.69V0h29.46v14.73l44.21,44.21,44.21-44.21V0h29.46Z"/></g></svg>